<svg width="14" height="15" viewBox="0 0 14 15" fill="none" xmlns="http://www.w3.org/2000/svg">
<ellipse cx="7" cy="1" rx="1" ry="1" transform="rotate(90 7 1)" fill="white"/>
<ellipse cx="5" cy="3" rx="1" ry="1" transform="rotate(90 5 3)" fill="white"/>
<ellipse cx="3" cy="5" rx="1" ry="1" transform="rotate(90 3 5)" fill="white"/>
<ellipse cx="1" cy="7.00006" rx="1" ry="1" transform="rotate(90 1 7.00006)" fill="white"/>
<ellipse cx="7" cy="5" rx="1" ry="1" transform="rotate(90 7 5)" fill="white"/>
<ellipse cx="7" cy="13.8001" rx="1" ry="1" transform="rotate(90 7 13.8001)" fill="white"/>
<ellipse cx="7" cy="10.8668" rx="1" ry="1" transform="rotate(90 7 10.8668)" fill="white"/>
<ellipse cx="7" cy="7.93329" rx="1" ry="1" transform="rotate(90 7 7.93329)" fill="white"/>
<ellipse cx="9" cy="3" rx="1" ry="1" transform="rotate(90 9 3)" fill="white"/>
<ellipse cx="11" cy="5" rx="1" ry="1" transform="rotate(90 11 5)" fill="white"/>
<ellipse cx="13" cy="7.00006" rx="1" ry="1" transform="rotate(90 13 7.00006)" fill="white"/>
</svg>
