<svg width="14" height="15" viewBox="0 0 14 15" fill="none" xmlns="http://www.w3.org/2000/svg">
<ellipse cx="1" cy="1" rx="1" ry="1" transform="matrix(-4.37114e-08 -1 -1 4.37114e-08 8.00001 14.8001)" fill="white"/>
<ellipse cx="1" cy="1" rx="1" ry="1" transform="matrix(-4.37114e-08 -1 -1 4.37114e-08 6.00001 12.8001)" fill="white"/>
<ellipse cx="1" cy="1" rx="1" ry="1" transform="matrix(-4.37114e-08 -1 -1 4.37114e-08 4.00001 10.8001)" fill="white"/>
<ellipse cx="1" cy="1" rx="1" ry="1" transform="matrix(-4.37114e-08 -1 -1 4.37114e-08 2.00001 8.80005)" fill="white"/>
<ellipse cx="1" cy="1" rx="1" ry="1" transform="matrix(-4.37114e-08 -1 -1 4.37114e-08 8.00001 10.8001)" fill="white"/>
<ellipse cx="1" cy="1" rx="1" ry="1" transform="matrix(-4.37114e-08 -1 -1 4.37114e-08 8.00001 2)" fill="white"/>
<ellipse cx="1" cy="1" rx="1" ry="1" transform="matrix(-4.37114e-08 -1 -1 4.37114e-08 8.00001 4.93329)" fill="white"/>
<ellipse cx="1" cy="1" rx="1" ry="1" transform="matrix(-4.37114e-08 -1 -1 4.37114e-08 8.00001 7.86682)" fill="white"/>
<ellipse cx="1" cy="1" rx="1" ry="1" transform="matrix(-4.37114e-08 -1 -1 4.37114e-08 10 12.8001)" fill="white"/>
<ellipse cx="1" cy="1" rx="1" ry="1" transform="matrix(-4.37114e-08 -1 -1 4.37114e-08 12 10.8001)" fill="white"/>
<ellipse cx="1" cy="1" rx="1" ry="1" transform="matrix(-4.37114e-08 -1 -1 4.37114e-08 14 8.80005)" fill="white"/>
</svg>
