<svg width="15" height="14" viewBox="0 0 15 14" fill="none" xmlns="http://www.w3.org/2000/svg">
<ellipse cx="1" cy="1" rx="1" ry="1" transform="matrix(-1 0 0 1 14.8002 6)" fill="white"/>
<ellipse cx="1" cy="1" rx="1" ry="1" transform="matrix(-1 0 0 1 12.8002 8)" fill="white"/>
<ellipse cx="1" cy="1" rx="1" ry="1" transform="matrix(-1 0 0 1 10.8002 10)" fill="white"/>
<ellipse cx="1" cy="1" rx="1" ry="1" transform="matrix(-1 0 0 1 8.80017 12)" fill="white"/>
<ellipse cx="1" cy="1" rx="1" ry="1" transform="matrix(-1 0 0 1 10.8002 6)" fill="white"/>
<ellipse cx="1" cy="1" rx="1" ry="1" transform="matrix(-1 0 0 1 2 6)" fill="white"/>
<ellipse cx="1" cy="1" rx="1" ry="1" transform="matrix(-1 0 0 1 4.93335 6)" fill="white"/>
<ellipse cx="1" cy="1" rx="1" ry="1" transform="matrix(-1 0 0 1 7.86694 6)" fill="white"/>
<ellipse cx="1" cy="1" rx="1" ry="1" transform="matrix(-1 0 0 1 12.8002 4)" fill="white"/>
<ellipse cx="1" cy="1" rx="1" ry="1" transform="matrix(-1 0 0 1 10.8002 2)" fill="white"/>
<ellipse cx="1" cy="1" rx="1" ry="1" transform="matrix(-1 0 0 1 8.80017 0)" fill="white"/>
</svg>
