<svg width="18" height="20" viewBox="0 0 18 20" fill="none" xmlns="http://www.w3.org/2000/svg">
<ellipse cx="8.99994" cy="13" rx="1" ry="1" fill="white"/>
<ellipse cx="11.0002" cy="10.9999" rx="1" ry="1" fill="white"/>
<ellipse cx="12.9999" cy="9.00018" rx="1" ry="1" fill="white"/>
<ellipse cx="12.9999" cy="6.99988" rx="1" ry="1" fill="white"/>
<ellipse cx="11.0002" cy="5" rx="1" ry="1" fill="white"/>
<ellipse cx="8.99994" cy="5" rx="1" ry="1" fill="white"/>
<ellipse cx="7" cy="6.99988" rx="1" ry="1" fill="white"/>
<ellipse cx="5" cy="9.00018" rx="1" ry="1" fill="white"/>
<ellipse cx="1" cy="13" rx="1" ry="1" fill="white"/>
<ellipse cx="3" cy="11" rx="1" ry="1" fill="white"/>
<ellipse cx="1" cy="15.0002" rx="1" ry="1" fill="white"/>
<ellipse cx="3" cy="17.0001" rx="1" ry="1" fill="white"/>
<ellipse cx="5" cy="19.0002" rx="1" ry="1" fill="white"/>
<ellipse cx="6.99988" cy="19.0002" rx="1" ry="1" fill="white"/>
<ellipse cx="9.00006" cy="17" rx="1" ry="1" fill="white"/>
<ellipse cx="11.0002" cy="15" rx="1" ry="1" fill="white"/>
<ellipse cx="12.9999" cy="13" rx="1" ry="1" fill="white"/>
<ellipse cx="15.0001" cy="10.9999" rx="1" ry="1" fill="white"/>
<ellipse cx="17.0001" cy="9.00018" rx="1" ry="1" fill="white"/>
<ellipse cx="17.0001" cy="6.99988" rx="1" ry="1" fill="white"/>
<ellipse cx="17.0001" cy="5" rx="1" ry="1" fill="white"/>
<ellipse cx="15.0001" cy="3" rx="1" ry="1" fill="white"/>
<ellipse cx="12.9999" cy="1" rx="1" ry="1" fill="white"/>
<ellipse cx="11.0002" cy="1" rx="1" ry="1" fill="white"/>
<ellipse cx="8.99994" cy="1" rx="1" ry="1" fill="white"/>
<ellipse cx="7" cy="3" rx="1" ry="1" fill="white"/>
<ellipse cx="5" cy="5" rx="1" ry="1" fill="white"/>
</svg>
