<svg width="10" height="20" viewBox="0 0 10 20" fill="none" xmlns="http://www.w3.org/2000/svg">
<ellipse cx="0.999984" cy="2.99998" rx="0.999984" ry="0.999983" fill="white"/>
<ellipse cx="2.99998" cy="0.999983" rx="0.999984" ry="0.999983" fill="white"/>
<ellipse cx="4.99992" cy="0.999983" rx="0.999984" ry="0.999983" fill="white"/>
<ellipse cx="6.99998" cy="0.999983" rx="0.999984" ry="0.999983" fill="white"/>
<ellipse cx="8.99998" cy="2.99998" rx="0.999984" ry="0.999983" fill="white"/>
<ellipse cx="4.99992" cy="8.99998" rx="0.999984" ry="0.999983" fill="white"/>
<ellipse cx="8.99998" cy="4.99998" rx="0.999984" ry="0.999983" fill="white"/>
<ellipse cx="8.99998" cy="6.99998" rx="0.999984" ry="0.999983" fill="white"/>
<ellipse cx="6.99998" cy="8.99998" rx="0.999984" ry="0.999983" fill="white"/>
<ellipse cx="4.99992" cy="11" rx="0.999984" ry="0.999983" fill="#D71A21"/>
<ellipse cx="0.999997" cy="1" rx="0.999997" ry="1" transform="matrix(1 0 0 -1 0 8)" fill="white"/>
<ellipse cx="0.999997" cy="1" rx="0.999997" ry="1" transform="matrix(1 0 0 -1 6 16)" fill="white"/>
<ellipse cx="0.999997" cy="1" rx="0.999997" ry="1" transform="matrix(1 0 0 -1 6 14)" fill="white"/>
<ellipse cx="0.999997" cy="1" rx="0.999997" ry="1" transform="matrix(1 0 0 -1 6 12)" fill="white"/>
<ellipse cx="0.999997" cy="1" rx="0.999997" ry="1" transform="matrix(1 0 0 -1 3.99994 16)" fill="white"/>
<ellipse cx="0.999997" cy="1" rx="0.999997" ry="1" transform="matrix(1 0 0 -1 3.99994 14)" fill="white"/>
<ellipse cx="0.999997" cy="1" rx="0.999997" ry="1" transform="matrix(1 0 0 -1 3.99994 18)" fill="white"/>
<ellipse cx="0.999997" cy="1" rx="0.999997" ry="1" transform="matrix(1 0 0 -1 3.99994 20)" fill="white"/>
<ellipse cx="0.999997" cy="1" rx="0.999997" ry="1" transform="matrix(1 0 0 -1 6 20)" fill="white"/>
<ellipse cx="0.999997" cy="1" rx="0.999997" ry="1" transform="matrix(1 0 0 -1 2 20)" fill="white"/>
<ellipse cx="0.999997" cy="1" rx="0.999997" ry="1" transform="matrix(1 0 0 -1 2 16)" fill="white"/>
<ellipse cx="0.999997" cy="1" rx="0.999997" ry="1" transform="matrix(1 0 0 -1 2 14)" fill="white"/>
<ellipse cx="0.999997" cy="1" rx="0.999997" ry="1" transform="matrix(0.999071 -0.0430893 -0.0430891 -0.999071 2.08618 12.0844)" fill="white"/>
<ellipse cx="0.999997" cy="1" rx="0.999997" ry="1" transform="matrix(1 0 0 -1 2 10)" fill="white"/>
<ellipse cx="0.999984" cy="4.99998" rx="0.999984" ry="0.999983" fill="white"/>
</svg>
