<svg width="18" height="20" viewBox="0 0 18 20" fill="none" xmlns="http://www.w3.org/2000/svg">
<ellipse cx="1.00001" cy="1.00001" rx="1.00001" ry="1.00001" transform="matrix(-1 0 0 1 2.00012 10)" fill="white"/>
<ellipse cx="1.00001" cy="1.00001" rx="1.00001" ry="1.00001" transform="matrix(-1 0 0 1 12 10)" fill="white"/>
<ellipse cx="1.00001" cy="1.00001" rx="1.00001" ry="1.00001" transform="matrix(-1 0 0 1 8 12)" fill="white"/>
<ellipse cx="1.00001" cy="1.00001" rx="1.00001" ry="1.00001" transform="matrix(-1 0 0 1 18 12)" fill="white"/>
<ellipse cx="1.00001" cy="1.00001" rx="1.00001" ry="1.00001" transform="matrix(-1 0 0 1 2.00012 8)" fill="white"/>
<ellipse cx="1.00001" cy="1.00001" rx="1.00001" ry="1.00001" transform="matrix(-1 0 0 1 12 8)" fill="white"/>
<ellipse cx="1.00001" cy="1.00001" rx="1.00001" ry="1.00001" transform="matrix(-1 0 0 1 8 10)" fill="white"/>
<ellipse cx="1.00001" cy="1.00001" rx="1.00001" ry="1.00001" transform="matrix(-1 0 0 1 18 10)" fill="white"/>
<ellipse cx="1.00001" cy="1.00001" rx="1.00001" ry="1.00001" transform="matrix(-1 0 0 1 8 8)" fill="white"/>
<ellipse cx="1.00001" cy="1.00001" rx="1.00001" ry="1.00001" transform="matrix(-1 0 0 1 18 8)" fill="white"/>
<ellipse cx="1.00001" cy="1.00001" rx="1.00001" ry="1.00001" transform="matrix(-1 0 0 1 2.00012 6)" fill="white"/>
<ellipse cx="1.00001" cy="1.00001" rx="1.00001" ry="1.00001" transform="matrix(-1 0 0 1 12 6)" fill="white"/>
<ellipse cx="1.00001" cy="1.00001" rx="1.00001" ry="1.00001" transform="matrix(-1 0 0 1 8 6)" fill="white"/>
<ellipse cx="1.00001" cy="1.00001" rx="1.00001" ry="1.00001" transform="matrix(-1 0 0 1 18 6)" fill="white"/>
<ellipse cx="1.00001" cy="1.00001" rx="1.00001" ry="1.00001" transform="matrix(-1 0 0 1 4 10)" fill="white"/>
<ellipse cx="1.00001" cy="1.00001" rx="1.00001" ry="1.00001" transform="matrix(-1 0 0 1 14 10)" fill="white"/>
<ellipse cx="1.00001" cy="1.00001" rx="1.00001" ry="1.00001" transform="matrix(-1 0 0 1 6 1.99994)" fill="white"/>
<ellipse cx="1.00001" cy="1.00001" rx="1.00001" ry="1.00001" transform="matrix(-1 0 0 1 16.0001 1.99994)" fill="white"/>
<ellipse cx="1.00001" cy="1.00001" rx="1.00001" ry="1.00001" transform="matrix(-1 0 0 1 6 13.9999)" fill="white"/>
<ellipse cx="1.00001" cy="1.00001" rx="1.00001" ry="1.00001" transform="matrix(-1 0 0 1 16.0001 13.9999)" fill="white"/>
<ellipse cx="1.00001" cy="1.00001" rx="1.00001" ry="1.00001" transform="matrix(-1 0 0 1 6 0)" fill="white"/>
<ellipse cx="1.00001" cy="1.00001" rx="1.00001" ry="1.00001" transform="matrix(-1 0 0 1 16.0001 0)" fill="white"/>
<ellipse cx="1.00001" cy="1.00001" rx="1.00001" ry="1.00001" transform="matrix(-1 0 0 1 6 12)" fill="white"/>
<ellipse cx="1.00001" cy="1.00001" rx="1.00001" ry="1.00001" transform="matrix(-1 0 0 1 16.0001 12)" fill="white"/>
<ellipse cx="1.00001" cy="1.00001" rx="1.00001" ry="1.00001" transform="matrix(-1 0 0 1 4 6)" fill="white"/>
<ellipse cx="1.00001" cy="1.00001" rx="1.00001" ry="1.00001" transform="matrix(-1 0 0 1 14 6)" fill="white"/>
<ellipse cx="1.00001" cy="1.00001" rx="1.00001" ry="1.00001" transform="matrix(-1 0 0 1 4 18)" fill="white"/>
<ellipse cx="1.00001" cy="1.00001" rx="1.00001" ry="1.00001" transform="matrix(-1 0 0 1 14 18)" fill="white"/>
<ellipse cx="1.00001" cy="1.00001" rx="1.00001" ry="1.00001" transform="matrix(-1 0 0 1 4 4)" fill="white"/>
<ellipse cx="1.00001" cy="1.00001" rx="1.00001" ry="1.00001" transform="matrix(-1 0 0 1 14 4)" fill="white"/>
<ellipse cx="1.00001" cy="1.00001" rx="1.00001" ry="1.00001" transform="matrix(-1 0 0 1 2.00012 4)" fill="white"/>
<ellipse cx="1.00001" cy="1.00001" rx="1.00001" ry="1.00001" transform="matrix(-1 0 0 1 12 4)" fill="white"/>
<ellipse cx="1.00001" cy="1.00001" rx="1.00001" ry="1.00001" transform="matrix(-1 0 0 1 4 16)" fill="white"/>
<ellipse cx="1.00001" cy="1.00001" rx="1.00001" ry="1.00001" transform="matrix(-1 0 0 1 14 16)" fill="white"/>
<ellipse cx="1.00001" cy="1.00001" rx="1.00001" ry="1.00001" transform="matrix(-1 0 0 1 2.00012 16)" fill="white"/>
<ellipse cx="1.00001" cy="1.00001" rx="1.00001" ry="1.00001" transform="matrix(-1 0 0 1 12 16)" fill="white"/>
<ellipse cx="1.00001" cy="1.00001" rx="1.00001" ry="1.00001" transform="matrix(-1 0 0 1 4 1.99994)" fill="white"/>
<ellipse cx="1.00001" cy="1.00001" rx="1.00001" ry="1.00001" transform="matrix(-1 0 0 1 14 1.99994)" fill="white"/>
<ellipse cx="1.00001" cy="1.00001" rx="1.00001" ry="1.00001" transform="matrix(-1 0 0 1 2.00012 1.99994)" fill="white"/>
<ellipse cx="1.00001" cy="1.00001" rx="1.00001" ry="1.00001" transform="matrix(-1 0 0 1 12 1.99994)" fill="white"/>
<ellipse cx="1.00001" cy="1.00001" rx="1.00001" ry="1.00001" transform="matrix(-1 0 0 1 4 13.9999)" fill="white"/>
<ellipse cx="1.00001" cy="1.00001" rx="1.00001" ry="1.00001" transform="matrix(-1 0 0 1 14 13.9999)" fill="white"/>
<ellipse cx="1.00001" cy="1.00001" rx="1.00001" ry="1.00001" transform="matrix(-1 0 0 1 2.00012 13.9999)" fill="white"/>
<ellipse cx="1.00001" cy="1.00001" rx="1.00001" ry="1.00001" transform="matrix(-1 0 0 1 12 13.9999)" fill="white"/>
<ellipse cx="1.00001" cy="1.00001" rx="1.00001" ry="1.00001" transform="matrix(-1 0 0 1 4 0)" fill="white"/>
<ellipse cx="1.00001" cy="1.00001" rx="1.00001" ry="1.00001" transform="matrix(-1 0 0 1 14 0)" fill="white"/>
<ellipse cx="1.00001" cy="1.00001" rx="1.00001" ry="1.00001" transform="matrix(-1 0 0 1 4 12)" fill="white"/>
<ellipse cx="1.00001" cy="1.00001" rx="1.00001" ry="1.00001" transform="matrix(-1 0 0 1 14 12)" fill="white"/>
<ellipse cx="1.00001" cy="1.00001" rx="1.00001" ry="1.00001" transform="matrix(-1 0 0 1 6 10)" fill="white"/>
<ellipse cx="1.00001" cy="1.00001" rx="1.00001" ry="1.00001" transform="matrix(-1 0 0 1 16.0001 10)" fill="white"/>
<ellipse cx="1.00001" cy="1.00001" rx="1.00001" ry="1.00001" transform="matrix(-1 0 0 1 6 8)" fill="white"/>
<ellipse cx="1.00001" cy="1.00001" rx="1.00001" ry="1.00001" transform="matrix(-1 0 0 1 16.0001 8)" fill="white"/>
<ellipse cx="1.00001" cy="1.00001" rx="1.00001" ry="1.00001" transform="matrix(-1 0 0 1 8 1.99994)" fill="white"/>
<ellipse cx="1.00001" cy="1.00001" rx="1.00001" ry="1.00001" transform="matrix(-1 0 0 1 18 1.99994)" fill="white"/>
<ellipse cx="1.00001" cy="1.00001" rx="1.00001" ry="1.00001" transform="matrix(-1 0 0 1 8 13.9999)" fill="white"/>
<ellipse cx="1.00001" cy="1.00001" rx="1.00001" ry="1.00001" transform="matrix(-1 0 0 1 18 13.9999)" fill="white"/>
<ellipse cx="1.00001" cy="1.00001" rx="1.00001" ry="1.00001" transform="matrix(-1 0 0 1 2.00012 12)" fill="white"/>
<ellipse cx="1.00001" cy="1.00001" rx="1.00001" ry="1.00001" transform="matrix(-1 0 0 1 12 12)" fill="white"/>
<ellipse cx="1.00001" cy="1.00001" rx="1.00001" ry="1.00001" transform="matrix(-1 0 0 1 4 8)" fill="white"/>
<ellipse cx="1.00001" cy="1.00001" rx="1.00001" ry="1.00001" transform="matrix(-1 0 0 1 14 8)" fill="white"/>
<ellipse cx="1.00001" cy="1.00001" rx="1.00001" ry="1.00001" transform="matrix(-1 0 0 1 6 4)" fill="white"/>
<ellipse cx="1.00001" cy="1.00001" rx="1.00001" ry="1.00001" transform="matrix(-1 0 0 1 16.0001 4)" fill="white"/>
<ellipse cx="1.00001" cy="1.00001" rx="1.00001" ry="1.00001" transform="matrix(-1 0 0 1 6 16)" fill="white"/>
<ellipse cx="1.00001" cy="1.00001" rx="1.00001" ry="1.00001" transform="matrix(-1 0 0 1 16.0001 16)" fill="white"/>
<ellipse cx="1.00001" cy="1.00001" rx="1.00001" ry="1.00001" transform="matrix(-1 0 0 1 6 6)" fill="white"/>
<ellipse cx="1.00001" cy="1.00001" rx="1.00001" ry="1.00001" transform="matrix(-1 0 0 1 16.0001 6)" fill="white"/>
<ellipse cx="1.00001" cy="1.00001" rx="1.00001" ry="1.00001" transform="matrix(-1 0 0 1 6 18)" fill="white"/>
<ellipse cx="1.00001" cy="1.00001" rx="1.00001" ry="1.00001" transform="matrix(-1 0 0 1 16.0001 18)" fill="white"/>
<ellipse cx="1.00001" cy="1.00001" rx="1.00001" ry="1.00001" transform="matrix(-1 0 0 1 8 4)" fill="white"/>
<ellipse cx="1.00001" cy="1.00001" rx="1.00001" ry="1.00001" transform="matrix(-1 0 0 1 18 4)" fill="white"/>
<ellipse cx="1.00001" cy="1.00001" rx="1.00001" ry="1.00001" transform="matrix(-1 0 0 1 8 16)" fill="white"/>
<ellipse cx="1.00001" cy="1.00001" rx="1.00001" ry="1.00001" transform="matrix(-1 0 0 1 18 16)" fill="white"/>
</svg>
