<svg width="18" height="18" viewBox="0 0 18 18" fill="none" xmlns="http://www.w3.org/2000/svg">
<circle cx="1" cy="3" r="1" fill="white"/>
<circle cx="3" cy="1" r="1" fill="white"/>
<circle cx="5" cy="1" r="1" fill="white"/>
<circle cx="7" cy="3" r="1" fill="white"/>
<circle cx="5" cy="7" r="1" fill="white"/>
<circle cx="7" cy="5" r="1" fill="white"/>
<circle cx="1" cy="7" r="1" fill="white"/>
<circle cx="11" cy="13" r="1" fill="white"/>
<circle cx="11" cy="17" r="1" fill="white"/>
<circle cx="9" cy="11" r="1" fill="white"/>
<circle cx="7" cy="9" r="1" fill="white"/>
<circle cx="3" cy="9" r="1" fill="white"/>
<circle cx="9" cy="15" r="1" fill="white"/>
<circle cx="5" cy="11" r="1" fill="white"/>
<circle cx="7" cy="13" r="1" fill="white"/>
<circle cx="13" cy="11" r="1" fill="white"/>
<circle cx="15" cy="11" r="1" fill="white"/>
<circle cx="17" cy="13" r="1" fill="white"/>
<circle cx="15" cy="17" r="1" fill="white"/>
<circle cx="17" cy="15" r="1" fill="white"/>
<circle cx="13" cy="17" r="1" fill="white"/>
<circle cx="1" cy="5" r="1" fill="white"/>
</svg>
