<svg width="14" height="20" viewBox="0 0 14 20" fill="none" xmlns="http://www.w3.org/2000/svg">
<ellipse cx="1.00001" cy="1.00001" rx="1.00001" ry="1.00001" transform="matrix(-1 0 0 1 12 10)" fill="white"/>
<ellipse cx="1.00001" cy="1.00001" rx="1.00001" ry="1.00001" transform="matrix(-1 0 0 1 14 10)" fill="white"/>
<ellipse cx="1.00001" cy="1.00001" rx="1.00001" ry="1.00001" transform="matrix(-1 0 0 1 10 10)" fill="white"/>
<ellipse cx="1.00001" cy="1.00001" rx="1.00001" ry="1.00001" transform="matrix(-1 0 0 1 10 12)" fill="white"/>
<ellipse cx="1.00001" cy="1.00001" rx="1.00001" ry="1.00001" transform="matrix(-1 0 0 1 12 12)" fill="white"/>
<ellipse cx="1.00001" cy="1.00001" rx="1.00001" ry="1.00001" transform="matrix(-1 0 0 1 8 12)" fill="white"/>
<ellipse cx="1.00001" cy="1.00001" rx="1.00001" ry="1.00001" transform="matrix(-1 0 0 1 8 10)" fill="white"/>
<ellipse cx="1.00001" cy="1.00001" rx="1.00001" ry="1.00001" transform="matrix(-1 0 0 1 8 8)" fill="white"/>
<ellipse cx="1.00001" cy="1.00001" rx="1.00001" ry="1.00001" transform="matrix(-1 0 0 1 10 6)" fill="white"/>
<ellipse cx="1.00001" cy="1.00001" rx="1.00001" ry="1.00001" transform="matrix(-1 0 0 1 12 6)" fill="white"/>
<ellipse cx="1.00001" cy="1.00001" rx="1.00001" ry="1.00001" transform="matrix(-1 0 0 1 10 4)" fill="white"/>
<ellipse cx="1.00001" cy="1.00001" rx="1.00001" ry="1.00001" transform="matrix(-1 0 0 1 10 8)" fill="white"/>
<ellipse cx="1.00001" cy="1.00001" rx="1.00001" ry="1.00001" transform="matrix(-1 0 0 1 6 2)" fill="white"/>
<ellipse cx="1.00001" cy="1.00001" rx="1.00001" ry="1.00001" transform="matrix(-1 0 0 1 6 14)" fill="white"/>
<ellipse cx="1.00001" cy="1.00001" rx="1.00001" ry="1.00001" transform="matrix(-1 0 0 1 6 12)" fill="white"/>
<ellipse cx="1.00001" cy="1.00001" rx="1.00001" ry="1.00001" transform="matrix(-1 0 0 1 6 0)" fill="white"/>
<ellipse cx="1.00001" cy="1.00001" rx="1.00001" ry="1.00001" transform="matrix(-1 0 0 1 6 10)" fill="white"/>
<ellipse cx="1.00001" cy="1.00001" rx="1.00001" ry="1.00001" transform="matrix(-1 0 0 1 4 6)" fill="white"/>
<ellipse cx="1.00001" cy="1.00001" rx="1.00001" ry="1.00001" transform="matrix(-1 0 0 1 4 18)" fill="white"/>
<ellipse cx="1.00001" cy="1.00001" rx="1.00001" ry="1.00001" transform="matrix(-1 0 0 1 4 4)" fill="white"/>
<ellipse cx="1.00001" cy="1.00001" rx="1.00001" ry="1.00001" transform="matrix(-1 0 0 1 2 4)" fill="white"/>
<ellipse cx="1.00001" cy="1.00001" rx="1.00001" ry="1.00001" transform="matrix(-1 0 0 1 4 16)" fill="white"/>
<ellipse cx="1.00001" cy="1.00001" rx="1.00001" ry="1.00001" transform="matrix(-1 0 0 1 2 16)" fill="white"/>
<ellipse cx="1.00001" cy="1.00001" rx="1.00001" ry="1.00001" transform="matrix(-1 0 0 1 4 2)" fill="white"/>
<ellipse cx="1.00001" cy="1.00001" rx="1.00001" ry="1.00001" transform="matrix(-1 0 0 1 2 2)" fill="white"/>
<ellipse cx="1.00001" cy="1.00001" rx="1.00001" ry="1.00001" transform="matrix(-1 0 0 1 4 14)" fill="white"/>
<ellipse cx="1.00001" cy="1.00001" rx="1.00001" ry="1.00001" transform="matrix(-1 0 0 1 2 14)" fill="white"/>
<ellipse cx="1.00001" cy="1.00001" rx="1.00001" ry="1.00001" transform="matrix(-1 0 0 1 4 0)" fill="white"/>
<ellipse cx="1.00001" cy="1.00001" rx="1.00001" ry="1.00001" transform="matrix(-1 0 0 1 4 12)" fill="white"/>
<ellipse cx="1.00001" cy="1.00001" rx="1.00001" ry="1.00001" transform="matrix(-1 0 0 1 12 8)" fill="white"/>
<ellipse cx="1.00001" cy="1.00001" rx="1.00001" ry="1.00001" transform="matrix(-1 0 0 1 14 8)" fill="white"/>
<ellipse cx="1.00001" cy="1.00001" rx="1.00001" ry="1.00001" transform="matrix(-1 0 0 1 8 2)" fill="white"/>
<ellipse cx="1.00001" cy="1.00001" rx="1.00001" ry="1.00001" transform="matrix(-1 0 0 1 8 14)" fill="white"/>
<ellipse cx="1.00001" cy="1.00001" rx="1.00001" ry="1.00001" transform="matrix(-1 0 0 1 10 14)" fill="white"/>
<ellipse cx="1.00001" cy="1.00001" rx="1.00001" ry="1.00001" transform="matrix(-1 0 0 1 8 6)" fill="white"/>
<ellipse cx="1.00001" cy="1.00001" rx="1.00001" ry="1.00001" transform="matrix(-1 0 0 1 6 4)" fill="white"/>
<ellipse cx="1.00001" cy="1.00001" rx="1.00001" ry="1.00001" transform="matrix(-1 0 0 1 6 6)" fill="white"/>
<ellipse cx="1.00001" cy="1.00001" rx="1.00001" ry="1.00001" transform="matrix(-1 0 0 1 6 16)" fill="white"/>
<ellipse cx="1.00001" cy="1.00001" rx="1.00001" ry="1.00001" transform="matrix(-1 0 0 1 6 8)" fill="white"/>
<ellipse cx="1.00001" cy="1.00001" rx="1.00001" ry="1.00001" transform="matrix(-1 0 0 1 6 18)" fill="white"/>
<ellipse cx="1.00001" cy="1.00001" rx="1.00001" ry="1.00001" transform="matrix(-1 0 0 1 8 4)" fill="white"/>
<ellipse cx="1.00001" cy="1.00001" rx="1.00001" ry="1.00001" transform="matrix(-1 0 0 1 8 16)" fill="white"/>
</svg>
