<svg width="16" height="16" viewBox="0 0 16 16" fill="none" xmlns="http://www.w3.org/2000/svg">
<circle cx="5" cy="5" r="1" transform="rotate(90 5 5)" fill="white"/>
<circle cx="7" cy="5" r="1" transform="rotate(90 7 5)" fill="white"/>
<circle cx="7" cy="7" r="1" transform="rotate(90 7 7)" fill="white"/>
<circle cx="5" cy="7" r="1" transform="rotate(90 5 7)" fill="white"/>
<circle cx="3" cy="7" r="1" transform="rotate(90 3 7)" fill="white"/>
<circle cx="1" cy="7" r="1" transform="rotate(90 1 7)" fill="white"/>
<circle cx="7" cy="3" r="1" transform="rotate(90 7 3)" fill="white"/>
<circle cx="3" cy="5" r="1" transform="rotate(90 3 5)" fill="white"/>
<circle cx="9" cy="5" r="1" transform="rotate(-90 9 5)" fill="white"/>
<circle cx="11" cy="7" r="1" transform="rotate(-90 11 7)" fill="white"/>
<circle cx="13" cy="7" r="1" transform="rotate(-90 13 7)" fill="white"/>
<circle cx="13" cy="9" r="1" transform="rotate(-90 13 9)" fill="white"/>
<circle cx="11" cy="9" r="1" transform="rotate(-90 11 9)" fill="white"/>
<circle cx="9" cy="9" r="1" transform="rotate(-90 9 9)" fill="white"/>
<circle cx="9" cy="11" r="1" transform="rotate(-90 9 11)" fill="white"/>
<circle cx="9" cy="13" r="1" transform="rotate(-90 9 13)" fill="white"/>
<circle cx="7" cy="13" r="1" transform="rotate(-90 7 13)" fill="white"/>
<circle cx="7" cy="15" r="1" transform="rotate(-90 7 15)" fill="white"/>
<circle cx="7" cy="11" r="1" transform="rotate(-90 7 11)" fill="white"/>
<circle cx="5" cy="9" r="1" transform="rotate(-90 5 9)" fill="white"/>
<circle cx="3" cy="9" r="1" transform="rotate(-90 3 9)" fill="white"/>
<circle cx="1" cy="9" r="1" transform="rotate(-90 1 9)" fill="white"/>
<circle cx="9" cy="15" r="1" transform="rotate(-90 9 15)" fill="white"/>
<circle cx="11" cy="13" r="1" transform="rotate(-90 11 13)" fill="white"/>
<circle cx="11" cy="11" r="1" transform="rotate(-90 11 11)" fill="white"/>
<circle cx="13" cy="5" r="1" transform="rotate(-90 13 5)" fill="white"/>
<circle cx="11" cy="5" r="1" transform="rotate(-90 11 5)" fill="white"/>
<circle cx="15" cy="5" r="1" transform="rotate(-90 15 5)" fill="white"/>
<circle cx="13" cy="1" r="1" transform="rotate(90 13 1)" fill="white"/>
<circle cx="9" cy="3" r="1" transform="rotate(-90 9 3)" fill="white"/>
<circle cx="11" cy="1" r="1" transform="rotate(-90 11 1)" fill="white"/>
<circle cx="15" cy="1" r="1" transform="rotate(90 15 1)" fill="white"/>
<circle cx="13" cy="3" r="1" transform="rotate(-180 13 3)" fill="white"/>
<circle cx="15" cy="3" r="1" transform="rotate(-180 15 3)" fill="white"/>
<circle cx="11" cy="3" r="1" transform="rotate(-180 11 3)" fill="white"/>
</svg>
