<svg width="18" height="18" viewBox="0 0 18 18" fill="none" xmlns="http://www.w3.org/2000/svg">
<circle cx="13" cy="1" r="1" transform="rotate(90 13 1)" fill="white"/>
<circle cx="11" cy="3" r="1" transform="rotate(90 11 3)" fill="white"/>
<circle cx="9" cy="5" r="1" transform="rotate(90 9 5)" fill="white"/>
<circle cx="15" cy="7" r="1" transform="rotate(-90 15 7)" fill="white"/>
<circle cx="13" cy="9" r="1" transform="rotate(-90 13 9)" fill="white"/>
<circle cx="15" cy="1" r="1" transform="rotate(90 15 1)" fill="white"/>
<circle cx="11" cy="11" r="1" transform="rotate(-90 11 11)" fill="white"/>
<circle cx="9" cy="17" r="1" transform="rotate(-90 9 17)" fill="white"/>
<circle cx="11" cy="13" r="1" transform="rotate(-90 11 13)" fill="white"/>
<circle cx="11" cy="15" r="1" transform="rotate(-90 11 15)" fill="white"/>
<circle cx="7" cy="13" r="1" transform="rotate(-90 7 13)" fill="white"/>
<circle cx="3" cy="7" r="1" transform="rotate(-90 3 7)" fill="white"/>
<circle cx="9" cy="15" r="1" transform="rotate(-90 9 15)" fill="white"/>
<circle cx="13" cy="5" r="1" transform="rotate(-90 13 5)" fill="white"/>
<circle cx="17" cy="1" r="1" transform="rotate(90 17 1)" fill="white"/>
<circle cx="7" cy="11" r="1" transform="rotate(-90 7 11)" fill="white"/>
<circle cx="3" cy="15" r="1" transform="rotate(-90 3 15)" fill="white"/>
<circle cx="1" cy="15" r="1" transform="rotate(-90 1 15)" fill="white"/>
<circle cx="1" cy="17" r="1" transform="rotate(-90 1 17)" fill="white"/>
<circle cx="3" cy="17" r="1" transform="rotate(-90 3 17)" fill="white"/>
<circle cx="5" cy="15" r="1" transform="rotate(-90 5 15)" fill="white"/>
<circle cx="3" cy="13" r="1" transform="rotate(-90 3 13)" fill="white"/>
<circle cx="17" cy="3" r="1" transform="rotate(-180 17 3)" fill="white"/>
<circle cx="7" cy="7" r="1" fill="white"/>
<circle cx="1" cy="9" r="1" fill="white"/>
<circle cx="5" cy="7" r="1" fill="white"/>
<circle cx="3" cy="9" r="1" fill="white"/>
<circle cx="5" cy="11" r="1" fill="white"/>
<circle cx="17" cy="5" r="1" transform="rotate(-180 17 5)" fill="white"/>
</svg>
