<svg width="18" height="18" viewBox="0 0 18 18" fill="none" xmlns="http://www.w3.org/2000/svg">
<circle cx="1" cy="11" r="1" fill="white"/>
<circle cx="1" cy="9" r="1" fill="white"/>
<circle cx="1" cy="7" r="1" fill="white"/>
<circle cx="17" cy="11" r="1" fill="white"/>
<circle cx="17" cy="9" r="1" fill="white"/>
<circle cx="17" cy="7" r="1" fill="white"/>
<circle cx="7" cy="1" r="1" transform="rotate(90 7 1)" fill="white"/>
<circle cx="9" cy="1" r="1" transform="rotate(90 9 1)" fill="white"/>
<circle cx="11" cy="1" r="1" transform="rotate(90 11 1)" fill="white"/>
<circle cx="7" cy="17" r="1" transform="rotate(90 7 17)" fill="white"/>
<circle cx="9" cy="17" r="1" transform="rotate(90 9 17)" fill="white"/>
<circle cx="11" cy="17" r="1" transform="rotate(90 11 17)" fill="white"/>
<circle cx="15" cy="14.9999" r="1" transform="rotate(90 15 14.9999)" fill="white"/>
<circle cx="12.9999" cy="17" r="1" transform="rotate(90 12.9999 17)" fill="white"/>
<circle cx="17" cy="13" r="1" transform="rotate(90 17 13)" fill="white"/>
<circle cx="3.00006" cy="14.9999" r="1" transform="rotate(90 3.00006 14.9999)" fill="white"/>
<circle cx="3.00006" cy="3" r="1" transform="rotate(90 3.00006 3)" fill="white"/>
<circle cx="5" cy="9" r="1" transform="rotate(90 5 9)" fill="white"/>
<circle cx="5" cy="7" r="1" transform="rotate(90 5 7)" fill="white"/>
<circle cx="7" cy="5.00006" r="1" transform="rotate(90 7 5.00006)" fill="white"/>
<circle cx="5" cy="11" r="1" transform="rotate(90 5 11)" fill="white"/>
<circle cx="7" cy="13" r="1" transform="rotate(90 7 13)" fill="white"/>
<circle cx="9" cy="13" r="1" transform="rotate(90 9 13)" fill="white"/>
<circle cx="11" cy="13" r="1" transform="rotate(90 11 13)" fill="white"/>
<circle cx="12.9999" cy="11" r="1" transform="rotate(90 12.9999 11)" fill="white"/>
<circle cx="12.9999" cy="7" r="1" transform="rotate(90 12.9999 7)" fill="white"/>
<circle cx="12.9999" cy="9" r="1" transform="rotate(90 12.9999 9)" fill="white"/>
<circle cx="11" cy="5.00006" r="1" transform="rotate(90 11 5.00006)" fill="white"/>
<circle cx="9" cy="5.00006" r="1" transform="rotate(90 9 5.00006)" fill="white"/>
<circle cx="1" cy="5.00006" r="1" transform="rotate(90 1 5.00006)" fill="white"/>
<circle cx="5" cy="1" r="1" transform="rotate(90 5 1)" fill="white"/>
<circle cx="15" cy="3" r="1" transform="rotate(90 15 3)" fill="#D71A21"/>
<circle cx="12.9999" cy="1" r="1" transform="rotate(90 12.9999 1)" fill="white"/>
<circle cx="17" cy="5.00006" r="1" transform="rotate(90 17 5.00006)" fill="white"/>
<circle cx="1" cy="13" r="1" fill="white"/>
<circle cx="5.00006" cy="17" r="1" fill="white"/>
</svg>
